<svg width="35" height="35" viewBox="0 0 35 35" fill="none" xmlns="http://www.w3.org/2000/svg">
<path d="M9.51215 16.2442C9.74045 16.747 10.3332 16.9696 10.8361 16.7413C11.339 16.513 11.5616 15.9203 11.3333 15.4174L9.51215 16.2442ZM7.52792 13.9787L7.5147 14.9786C7.52121 14.9787 7.52771 14.9787 7.53421 14.9787L7.52792 13.9787ZM4.375 17.0485L3.375 17.035V17.0485H4.375ZM4.375 23.191H3.375C3.375 23.1963 3.37504 23.2016 3.37513 23.2068L4.375 23.191ZM7.52792 26.2535L7.5358 25.2535C7.52875 25.2535 7.52171 25.2535 7.51467 25.2536L7.52792 26.2535ZM11.4749 24.4535C11.6543 23.9312 11.3763 23.3623 10.854 23.1829C10.3316 23.0035 9.76277 23.2816 9.58339 23.8039L11.4749 24.4535ZM11.3363 15.4242C11.1118 14.9196 10.5207 14.6926 10.0161 14.9172C9.51155 15.1417 9.28455 15.7328 9.50909 16.2374L11.3363 15.4242ZM10.6808 17.0485L9.68083 17.0476V17.0485H10.6808ZM10.6808 23.191H9.68081L9.68086 23.1979L10.6808 23.191ZM9.58378 23.826C9.41339 24.3514 9.70114 24.9154 10.2265 25.0858C10.7518 25.2561 11.3158 24.9684 11.4862 24.443L9.58378 23.826ZM9.52746 15.3852C9.28138 15.8797 9.48272 16.48 9.97715 16.726C10.4716 16.9721 11.0719 16.7708 11.318 16.2763L9.52746 15.3852ZM11.4552 14.5635L10.8648 13.7564C10.8557 13.763 10.8468 13.7698 10.8379 13.7767L11.4552 14.5635ZM12.0065 13.7818L12.9649 14.067C12.9685 14.0551 12.9718 14.0431 12.9749 14.0311L12.0065 13.7818ZM13.5829 7.65682L12.6227 7.37741C12.6198 7.38742 12.6171 7.39747 12.6145 7.40757L13.5829 7.65682ZM16.6731 5.92141L16.412 6.8867C16.4196 6.88877 16.4273 6.89074 16.4349 6.89263L16.6731 5.92141ZM18.1956 7.04994L17.3356 7.56026V7.56026L18.1956 7.04994ZM18.4567 8.92703L19.4208 9.19267L19.4233 9.18333L18.4567 8.92703ZM17.5554 12.1981L16.5913 11.9324C16.5899 11.9375 16.5886 11.9426 16.5873 11.9476L17.5554 12.1981ZM17.7813 13.2722L16.996 13.8914L16.996 13.8914L17.7813 13.2722ZM18.7731 13.7424V12.7424C18.7672 12.7424 18.7613 12.7425 18.7554 12.7426L18.7731 13.7424ZM23.924 13.7424V14.7425L23.9377 14.7424L23.924 13.7424ZM26.5794 14.8002L27.2769 14.0837L27.2769 14.0837L26.5794 14.8002ZM27.7083 17.4262H28.7084L28.7082 17.413L27.7083 17.4262ZM27.7083 22.3364L28.7083 22.35V22.3364H27.7083ZM26.5789 24.9614L25.8815 24.2447L26.5789 24.9614ZM23.924 26.0187L23.9377 25.0187H23.924V26.0187ZM13.8337 26.0187V25.0187L13.8287 25.0187L13.8337 26.0187ZM11.3936 23.626C11.116 23.1486 10.5039 22.9866 10.0265 23.2642C9.54906 23.5418 9.38707 24.1539 9.66469 24.6314L11.3936 23.626ZM11.3333 15.4174C10.6551 13.9237 9.16204 12.9684 7.52162 12.9787L7.53421 14.9787C8.38546 14.9733 9.16026 15.469 9.51215 16.2442L11.3333 15.4174ZM7.54113 12.9788C5.27075 12.9488 3.40575 14.7646 3.37509 17.035L5.37491 17.062C5.39066 15.8959 6.34857 14.9632 7.5147 14.9786L7.54113 12.9788ZM3.375 17.0485V23.191H5.375V17.0485H3.375ZM3.37513 23.2068C3.41104 25.4734 5.27449 27.2834 7.54116 27.2534L7.51467 25.2536C6.35044 25.269 5.39332 24.3393 5.37487 23.1751L3.37513 23.2068ZM7.52004 27.2535C9.30322 27.2675 10.8957 26.1401 11.4749 24.4535L9.58339 23.8039C9.28351 24.6771 8.45901 25.2608 7.5358 25.2535L7.52004 27.2535ZM9.50909 16.2374C9.62258 16.4924 9.6811 16.7684 9.68083 17.0476L11.6808 17.0494C11.6814 16.4895 11.564 15.9358 11.3363 15.4242L9.50909 16.2374ZM9.68083 17.0485V23.191H11.6808V17.0485H9.68083ZM9.68086 23.1979C9.68234 23.4111 9.64956 23.6232 9.58378 23.826L11.4862 24.443C11.6181 24.0365 11.6838 23.6114 11.6808 23.184L9.68086 23.1979ZM11.318 16.2763C11.4976 15.9154 11.7553 15.5991 12.0725 15.3502L10.8379 13.7767C10.2871 14.2089 9.83942 14.7584 9.52746 15.3852L11.318 16.2763ZM12.0456 15.3706C12.4863 15.0482 12.8092 14.5903 12.9649 14.067L11.048 13.4966C11.017 13.6009 10.9526 13.6921 10.8648 13.7564L12.0456 15.3706ZM12.9749 14.0311L14.5514 7.90608L12.6145 7.40757L11.038 13.5326L12.9749 14.0311ZM14.5431 7.93624C14.7761 7.13565 15.6071 6.66895 16.412 6.8867L16.9343 4.95611C15.0775 4.45376 13.1602 5.53044 12.6227 7.37741L14.5431 7.93624ZM16.4349 6.89263C16.8126 6.98525 17.1372 7.22584 17.3356 7.56026L19.0556 6.53963C18.5832 5.74347 17.8105 5.1707 16.9113 4.95019L16.4349 6.89263ZM17.3356 7.56026C17.5341 7.89468 17.5897 8.29485 17.4901 8.67073L19.4233 9.18333C19.6605 8.28847 19.5281 7.33579 19.0556 6.53963L17.3356 7.56026ZM17.4926 8.66141L16.5913 11.9324L18.5195 12.4637L19.4207 9.19266L17.4926 8.66141ZM16.5873 11.9476C16.4124 12.6238 16.5636 13.3429 16.996 13.8914L18.5666 12.6531C18.5211 12.5954 18.5051 12.5197 18.5235 12.4485L16.5873 11.9476ZM16.996 13.8914C17.4285 14.4399 18.0925 14.7547 18.7908 14.7423L18.7554 12.7426C18.6819 12.7439 18.6121 12.7108 18.5666 12.6531L16.996 13.8914ZM18.7731 14.7424H23.924V12.7424H18.7731V14.7424ZM23.9377 14.7424C24.6628 14.7324 25.3622 15.011 25.8819 15.5168L27.2769 14.0837C26.377 13.2077 25.1659 12.7253 23.9102 12.7425L23.9377 14.7424ZM25.8819 15.5168C26.4015 16.0226 26.6989 16.7143 26.7084 17.4394L28.7082 17.413C28.6917 16.1573 28.1768 14.9596 27.2769 14.0837L25.8819 15.5168ZM26.7083 17.4262V22.3364H28.7083V17.4262H26.7083ZM26.7084 22.3228C26.6986 23.0478 26.4011 23.7391 25.8815 24.2447L27.2762 25.6781C28.1761 24.8026 28.6912 23.6054 28.7082 22.35L26.7084 22.3228ZM25.8815 24.2447C25.3619 24.7503 24.6627 25.0288 23.9377 25.0188L23.9102 27.0186C25.1656 27.0359 26.3764 26.5537 27.2762 25.6781L25.8815 24.2447ZM23.924 25.0187H13.8337V27.0187H23.924V25.0187ZM13.8287 25.0187C12.8262 25.0238 11.8976 24.4926 11.3936 23.626L9.66469 24.6314C10.5285 26.1169 12.1204 27.0274 13.8388 27.0187L13.8287 25.0187Z" fill="#BA007C"/>
</svg>
